<svg width="27" height="25" viewBox="0 0 27 25" fill="none" xmlns="http://www.w3.org/2000/svg">
<g filter="url(#filter0_d_508_291)">
<path d="M20.2422 6.24997H18.7812C18.5841 4.95738 17.9304 3.77819 16.9386 2.92616C15.9468 2.07413 14.6825 1.60565 13.375 1.60565C12.0675 1.60565 10.8032 2.07413 9.81139 2.92616C8.81958 3.77819 8.16586 4.95738 7.96875 6.24997H6.50781C5.8427 6.24997 5.20483 6.51419 4.73452 6.98449C4.26422 7.4548 4 8.09267 4 8.75778V16.7656C4.00207 18.5345 4.70566 20.2303 5.95643 21.481C7.2072 22.7318 8.90302 23.4354 10.6719 23.4375H16.0781C17.847 23.4354 19.5428 22.7318 20.7936 21.481C22.0443 20.2303 22.7479 18.5345 22.75 16.7656V8.75778C22.75 8.09267 22.4858 7.4548 22.0155 6.98449C21.5452 6.51419 20.9073 6.24997 20.2422 6.24997ZM21.1875 16.7656C21.1875 18.1207 20.6492 19.4203 19.691 20.3785C18.7328 21.3367 17.4332 21.875 16.0781 21.875H10.6719C9.31678 21.875 8.01719 21.3367 7.059 20.3785C6.10081 19.4203 5.5625 18.1207 5.5625 16.7656V8.75778C5.5625 8.50707 5.66209 8.26663 5.83938 8.08935C6.01666 7.91206 6.2571 7.81247 6.50781 7.81247H8.6875C8.8947 7.81247 9.09341 7.73016 9.23993 7.58365C9.38644 7.43713 9.46875 7.23842 9.46875 7.03122C9.46778 6.06251 9.82678 5.12799 10.4761 4.40908C11.1254 3.69018 12.0186 3.23818 12.9824 3.14082C13.9462 3.04347 14.9118 3.30771 15.6918 3.88225C16.4717 4.45678 17.0104 5.30063 17.2031 6.24997H12.5938C12.3865 6.24997 12.1878 6.33228 12.0413 6.47879C11.8948 6.62531 11.8125 6.82402 11.8125 7.03122C11.8125 7.23842 11.8948 7.43713 12.0413 7.58365C12.1878 7.73016 12.3865 7.81247 12.5938 7.81247H20.2422C20.4929 7.81247 20.7333 7.91206 20.9106 8.08935C21.0879 8.26663 21.1875 8.50707 21.1875 8.75778V16.7656Z" fill="black"/>
<path d="M18.2031 9.37496C18.0002 9.33843 17.791 9.38364 17.6212 9.50072C17.4514 9.6178 17.3349 9.79726 17.2969 9.99996C17.1155 10.9023 16.6273 11.7141 15.9152 12.2973C15.2031 12.8805 14.3111 13.1992 13.3906 13.1992C12.4702 13.1992 11.5781 12.8805 10.866 12.2973C10.154 11.7141 9.66574 10.9023 9.48437 9.99996C9.4658 9.89638 9.4265 9.79763 9.36882 9.70961C9.31115 9.6216 9.23629 9.54615 9.14874 9.48778C9.06118 9.42941 8.96274 9.38933 8.85931 9.36994C8.75589 9.35055 8.64961 9.35226 8.54687 9.37496C8.44351 9.39184 8.3446 9.42933 8.25602 9.48519C8.16744 9.54106 8.091 9.61417 8.03124 9.70017C7.97147 9.78617 7.92961 9.8833 7.90814 9.9858C7.88667 10.0883 7.88602 10.1941 7.90624 10.2968C8.12538 11.5887 8.79475 12.7612 9.79574 13.6067C10.7967 14.4522 12.0647 14.916 13.375 14.916C14.6853 14.916 15.9533 14.4522 16.9542 13.6067C17.9552 12.7612 18.6246 11.5887 18.8437 10.2968C18.864 10.1941 18.8633 10.0883 18.8418 9.9858C18.8204 9.8833 18.7785 9.78617 18.7187 9.70017C18.659 9.61417 18.5825 9.54106 18.494 9.48519C18.4054 9.42933 18.3065 9.39184 18.2031 9.37496Z" fill="black"/>
</g>
<defs>
<filter id="filter0_d_508_291" x="-3.125" y="0" width="33" height="25" filterUnits="userSpaceOnUse" color-interpolation-filters="sRGB">
<feFlood flood-opacity="0" result="BackgroundImageFix"/>
<feColorMatrix in="SourceAlpha" type="matrix" values="0 0 0 0 0 0 0 0 0 0 0 0 0 0 0 0 0 0 127 0" result="hardAlpha"/>
<feOffset dy="4"/>
<feGaussianBlur stdDeviation="2"/>
<feComposite in2="hardAlpha" operator="out"/>
<feColorMatrix type="matrix" values="0 0 0 0 0 0 0 0 0 0 0 0 0 0 0 0 0 0 0.25 0"/>
<feBlend mode="normal" in2="BackgroundImageFix" result="effect1_dropShadow_508_291"/>
<feBlend mode="normal" in="SourceGraphic" in2="effect1_dropShadow_508_291" result="shape"/>
</filter>
</defs>
</svg>
